<svg width="512" height="512" viewBox="0 0 512 512" fill="none" xmlns="http://www.w3.org/2000/svg">
<g clip-path="url(#clip0_3_3279)">
<path d="M17.067 409.6V477.867C17.067 496.718 32.3487 512 51.2 512H460.8C479.651 512 494.932 496.718 494.932 477.867V409.6H17.067Z" fill="#B5DBFF"/>
<path d="M471.239 409.6V477.868C471.239 496.718 455.957 512 437.107 512H460.801C479.652 512 494.933 496.718 494.933 477.868V409.6H471.239Z" fill="#97D0FF"/>
<path d="M17.067 136.533V443.733C17.067 462.583 32.3487 477.865 51.199 477.865H460.8C479.651 477.865 494.932 462.583 494.932 443.733V136.533H17.067Z" fill="#EDF5FF"/>
<path d="M471.239 136.533V443.733C471.239 462.583 455.957 477.865 437.107 477.865H460.801C479.652 477.865 494.933 462.583 494.933 443.733V136.533H471.239Z" fill="#D5E8FE"/>
<path d="M494.933 153.6V68.266C494.933 49.4147 479.651 34.134 460.801 34.134H51.2C32.3487 34.134 17.068 49.4157 17.068 68.266V153.6H494.933Z" fill="#FFFF99"/>
<path d="M119.467 75.9934H102.4C100.351 75.9934 98.3857 75.1793 96.9367 73.7304C95.4877 72.2814 94.6737 70.3162 94.6737 68.267C94.6737 66.2178 95.4877 64.2526 96.9367 62.8036C98.3857 61.3547 100.351 60.5406 102.4 60.5406H119.467C121.516 60.5406 123.481 61.3547 124.93 62.8036C126.379 64.2526 127.193 66.2178 127.193 68.267C127.193 70.3162 126.379 72.2814 124.93 73.7304C123.481 75.1793 121.516 75.9934 119.467 75.9934ZM170.667 75.9934H153.6C151.551 75.9934 149.586 75.1793 148.137 73.7304C146.688 72.2814 145.874 70.3162 145.874 68.267C145.874 66.2178 146.688 64.2526 148.137 62.8036C149.586 61.3547 151.551 60.5406 153.6 60.5406H170.666C172.715 60.5405 174.68 61.3544 176.13 62.8033C177.579 64.2522 178.393 66.2173 178.393 68.2665C178.393 70.3157 177.579 72.2809 176.13 73.73C174.681 75.1791 172.716 75.9932 170.667 75.9934ZM358.4 75.9934H341.334C339.285 75.9934 337.32 75.1793 335.871 73.7304C334.422 72.2814 333.608 70.3162 333.608 68.267C333.608 66.2178 334.422 64.2526 335.871 62.8036C337.32 61.3547 339.285 60.5406 341.334 60.5406H358.4C360.449 60.5406 362.414 61.3547 363.863 62.8036C365.312 64.2526 366.126 66.2178 366.126 68.267C366.126 70.3162 365.312 72.2814 363.863 73.7304C362.414 75.1793 360.449 75.9934 358.4 75.9934ZM409.6 75.9934H392.533C390.484 75.9934 388.519 75.1793 387.07 73.7304C385.621 72.2814 384.807 70.3162 384.807 68.267C384.807 66.2178 385.621 64.2526 387.07 62.8036C388.519 61.3547 390.484 60.5406 392.533 60.5406H409.6C411.649 60.5406 413.614 61.3547 415.063 62.8036C416.512 64.2526 417.326 66.2178 417.326 68.267C417.326 70.3162 416.512 72.2814 415.063 73.7304C413.614 75.1793 411.649 75.9934 409.6 75.9934Z" fill="#FEDE31"/>
<path d="M119.467 68.267C119.467 77.6921 127.108 85.334 136.534 85.334C145.96 85.334 153.601 77.6932 153.601 68.267V17.067C153.6 7.64085 145.959 0 136.533 0C127.108 0 119.466 7.64085 119.466 17.067L119.467 68.267ZM358.4 68.267C358.4 77.6921 366.041 85.334 375.467 85.334C384.893 85.334 392.534 77.6932 392.534 68.267V17.067C392.534 7.64085 384.893 0 375.467 0C366.041 0 358.4 7.64085 358.4 17.067V68.267Z" fill="#596C76"/>
<path d="M460.8 34.1329H437.106C455.957 34.1329 471.238 49.4146 471.238 68.2649V153.6H494.932V68.2659C494.933 49.4146 479.651 34.1329 460.8 34.1329Z" fill="#FEDE31"/>
<path d="M17.067 111.741H494.933V127.193H17.067V111.741Z" fill="#FEDE31"/>
<path d="M264.533 268.8C264.533 233.51 235.823 204.8 200.533 204.8C165.243 204.8 136.533 233.51 136.533 268.8C136.533 278.226 144.174 285.867 153.6 285.867C163.026 285.867 170.667 278.226 170.667 268.8C170.667 252.332 184.064 238.933 200.534 238.933C217.002 238.933 230.401 252.33 230.401 268.8C230.401 285.27 217.003 298.667 200.534 298.667C191.108 298.667 183.467 306.308 183.467 315.734C183.467 325.16 191.108 332.801 200.534 332.801C217.002 332.801 230.401 346.199 230.401 362.668C230.401 379.137 217.003 392.535 200.534 392.535C184.066 392.535 170.667 379.138 170.667 362.668C170.667 353.242 163.026 345.601 153.6 345.601C144.174 345.601 136.533 353.242 136.533 362.668C136.533 397.958 165.243 426.668 200.533 426.668C235.823 426.668 264.533 397.958 264.533 362.668C264.533 344.139 256.61 327.433 243.984 315.735C256.611 304.035 264.533 287.329 264.533 268.8ZM346.531 206.099C343.413 204.807 339.981 204.469 336.67 205.128C333.36 205.786 330.319 207.412 327.932 209.799L293.799 243.932C287.134 250.597 287.134 261.403 293.799 268.068C300.464 274.732 311.27 274.732 317.934 268.068L322.934 263.068V409.6C322.934 419.026 330.575 426.667 340.001 426.667C349.427 426.667 357.068 419.026 357.068 409.6V221.867C357.067 218.491 356.066 215.192 354.191 212.385C352.315 209.579 349.65 207.391 346.531 206.099Z" fill="#596C76"/>
</g>
<defs>
<clipPath id="clip0_3_3279">
<rect width="512" height="512" fill="white"/>
</clipPath>
</defs>
</svg>
