<svg width="18" height="20" viewBox="0 0 18 20" fill="none" xmlns="http://www.w3.org/2000/svg">
<path d="M15.9702 1.9856H13.3704V0.8714C13.3704 0.772899 13.3313 0.678432 13.2617 0.608781C13.192 0.53913 13.0975 0.5 12.999 0.5C12.9005 0.5 12.8061 0.53913 12.7364 0.608781C12.6668 0.678432 12.6276 0.772899 12.6276 0.8714V1.9856H4.45681V0.8714C4.45681 0.772899 4.41768 0.678432 4.34803 0.608781C4.27838 0.53913 4.18391 0.5 4.08541 0.5C3.98691 0.5 3.89244 0.53913 3.82279 0.608781C3.75314 0.678432 3.71401 0.772899 3.71401 0.8714V1.9856H1.1142C0.818698 1.9856 0.535296 2.10299 0.326342 2.31194C0.117389 2.52089 0 2.8043 0 3.0998L0 17.9558C0 18.2513 0.117389 18.5347 0.326342 18.7437C0.535296 18.9526 0.818698 19.07 1.1142 19.07H15.9702C16.2657 19.07 16.5491 18.9526 16.7581 18.7437C16.9671 18.5347 17.0844 18.2513 17.0844 17.9558V3.0998C17.0844 2.8043 16.9671 2.52089 16.7581 2.31194C16.5491 2.10299 16.2657 1.9856 15.9702 1.9856ZM1.1142 2.7284H3.71401V3.8426C3.71401 3.9411 3.75314 4.03557 3.82279 4.10522C3.89244 4.17487 3.98691 4.214 4.08541 4.214C4.18391 4.214 4.27838 4.17487 4.34803 4.10522C4.41768 4.03557 4.45681 3.9411 4.45681 3.8426V2.7284H12.6276V3.8426C12.6276 3.9411 12.6668 4.03557 12.7364 4.10522C12.8061 4.17487 12.9005 4.214 12.999 4.214C13.0975 4.214 13.192 4.17487 13.2617 4.10522C13.3313 4.03557 13.3704 3.9411 13.3704 3.8426V2.7284H15.9702C16.0687 2.7284 16.1632 2.76753 16.2329 2.83718C16.3025 2.90683 16.3416 3.0013 16.3416 3.0998V6.4424H0.742802V3.0998C0.742802 3.0013 0.781932 2.90683 0.851583 2.83718C0.921234 2.76753 1.0157 2.7284 1.1142 2.7284ZM15.9702 18.3272H1.1142C1.0157 18.3272 0.921234 18.2881 0.851583 18.2184C0.781932 18.1488 0.742802 18.0543 0.742802 17.9558V7.1852H16.3416V17.9558C16.3416 18.0543 16.3025 18.1488 16.2329 18.2184C16.1632 18.2881 16.0687 18.3272 15.9702 18.3272Z" fill="#434C4E"/>
</svg>
